<?xml version="1.0" standalone="no"?>
<!DOCTYPE svg PUBLIC "-//W3C//DTD SVG 20010904//EN"
 "http://www.w3.org/TR/2001/REC-SVG-20010904/DTD/svg10.dtd">
<svg version="1.0" xmlns="http://www.w3.org/2000/svg"
 width="260.000000pt" height="260.000000pt" viewBox="0 0 260.000000 260.000000"
 preserveAspectRatio="xMidYMid meet">
<metadata>
Created by potrace 1.11, written by Peter Selinger 2001-2013
</metadata>
<g transform="translate(0.000000,260.000000) scale(0.100000,-0.100000)"
fill="#000000" stroke="none">
<path d="M0 1300 l0 -1300 1300 0 1300 0 0 1300 0 1300 -1300 0 -1300 0 0
-1300z m1980 230 c3 -399 6 -726 8 -727 1 -1 9 -9 18 -17 8 -9 30 -16 49 -16
28 0 34 -4 39 -27 10 -49 36 -217 36 -235 0 -25 -87 -41 -200 -37 -121 5 -194
37 -245 107 -73 101 -70 59 -73 915 l-3 767 183 -2 183 -3 5 -725z m-910 375
l0 -165 150 0 150 0 0 -145 0 -145 -151 0 -150 0 3 -292 c3 -273 4 -295 23
-328 36 -62 116 -85 208 -59 22 6 40 9 42 7 6 -6 55 -229 55 -249 0 -34 -95
-54 -260 -54 -130 0 -151 3 -205 24 -71 29 -150 104 -183 174 -46 98 -52 152
-52 475 l0 302 -85 0 -85 0 0 139 0 138 61 7 c34 3 76 6 94 6 l32 0 17 133
c10 72 20 147 23 165 l5 32 154 0 154 0 0 -165z"/>
</g>
</svg>
